<?xml version="1.0" encoding="utf-8"?>
<svg xmlns="http://www.w3.org/2000/svg" viewBox="6.997 6.997 242.006 242.006" width="242.006" height="242.006"><ellipse style="stroke: rgb(0, 0, 0);" cx="128" cy="128" rx="121.003" ry="121.003" transform="matrix(1, 0, 0, 1, 0, 5.684341886080802e-14)"/><g style="" transform="matrix(1.2469439506530762, 0, 0, 1.2469439506530762, -37.905906677246094, 8.993864059448299)"><g><path fill="#FFFFFF" d="M185.1,130.5l0.2-5.2l-45,14.9l0,6.2L185.1,130.5z"/><path fill="#FFFFFF" d="M167,89.6l5.1-1.3l-0.9,34.6l6.8-2l1.1-34.3l5-1.3l-7.6-14.5l-0.7,0.1L167,89.6z"/><path fill="#FFFFFF" d="M143,97.5l5.1-1.3l-0.3,34.7l7.8-2.3l0.5-34.3l5.2-1.3l-8.6-15.2l-0.3,0.1L143,97.5z"/><path fill="#FFFFFF" d="M66.4,134.8l53,37.8l82.2-30.4l3.1-96.8l-26.8-7.2L93.3,55.9l0.2,35.6l-9.2-4.2L83,50.6l82.5-16.9l-22.7-5.8L61.4,42L66.4,134.8L66.4,134.8z M197.2,56.2l-1.8,80.1l-67.8,24.6l-0.5-87.7L197.2,56.2L197.2,56.2z"/></g></g></svg>